<?xml version="1.0" encoding="UTF-8" standalone="no"?>
<svg
   xmlns:dc="http://purl.org/dc/elements/1.1/"
   xmlns:cc="http://creativecommons.org/ns#"
   xmlns:rdf="http://www.w3.org/1999/02/22-rdf-syntax-ns#"
   xmlns:svg="http://www.w3.org/2000/svg"
   xmlns="http://www.w3.org/2000/svg"
   id="svg8"
   version="1.1"
   viewBox="0 0 54.427436 9.5779161"
   height="9.5779161mm"
   width="54.427437mm">
  <defs
     id="defs2" />
  <metadata
     id="metadata5">
    <rdf:RDF>
      <cc:Work
         rdf:about="">
        <dc:format>image/svg+xml</dc:format>
        <dc:type
           rdf:resource="http://purl.org/dc/dcmitype/StillImage" />
        <dc:title></dc:title>
      </cc:Work>
    </rdf:RDF>
  </metadata>
  <g
     transform="translate(-8.6343421,-24.978045)"
     id="layer1">
    <g
       id="flowRoot815"
       style="font-style:normal;font-weight:normal;font-size:40px;line-height:1.25;font-family:sans-serif;letter-spacing:0px;word-spacing:0px;fill:#000000;fill-opacity:1;stroke:none"
       transform="matrix(0.26458333,0,0,0.26458333,6.815373,-0.13363476)"
       aria-label="openLEADR">
      <path
         id="path864"
         style="fill:#333333;fill-opacity:1"
         d="m 16.314844,124.11029 q -2.76,0 -4.6,-0.76 -1.8000003,-0.8 -2.8800002,-2.16 -1.0800001,-1.36 -1.5200001,-3.16 -0.44,-1.84 -0.44,-3.92 0,-2.4 0.5600001,-4.68 0.6,-2.32 1.9999999,-4.12 1.4000003,-1.8 3.6800003,-2.88 2.32,-1.12 5.76,-1.12 5.04,0 7.2,2.48 2.2,2.44 2.2,6.88 0,1.24 -0.2,2.76 -0.16,1.48 -0.68,2.96 -0.48,1.48 -1.36,2.88 -0.84,1.4 -2.16,2.48 -1.32,1.08 -3.2,1.72 -1.84,0.64 -4.36,0.64 z m 1.88,-17.48 q -1.52,0 -2.44,0.8 -0.88,0.76 -1.36,1.88 -0.44,1.08 -0.6,2.32 -0.12,1.2 -0.12,2.04 0,2.64 0.84,3.88 0.84,1.24 2.4,1.24 1.4,0 2.28,-0.88 0.92,-0.88 1.4,-2.12 0.52,-1.24 0.68,-2.6 0.2,-1.36 0.2,-2.28 0,-2 -0.76,-3.12 -0.72,-1.16 -2.52,-1.16 z" />
      <path
         id="path866"
         style="fill:#333333;fill-opacity:1"
         d="m 45.101094,101.31029 q 3.76,0 5.64,2.32 1.92,2.32 1.92,7.32 0,3.12 -0.72,5.56 -0.72,2.44 -2,4.16 -1.28,1.68 -3,2.56 -1.72,0.88 -3.72,0.88 -2.12,0 -3.32,-0.92 -1.2,-0.92 -1.88,-2.6 -0.12,1.44 -0.2,2.2 -0.08,0.76 -0.12,1.2 -0.04,0.48 -0.08,0.84 0,0.36 -0.08,0.96 -0.04,0.6 -0.12,1.64 -0.08,1.04 -0.24,2.88 -0.04,0.48 -0.2,0.64 -0.16,0.16 -0.68,0.16 h -1.44 q -1.24,0 -2.04,-0.28 -0.76,-0.24 -1.24,-0.72 -0.44,-0.48 -0.64,-1.2 -0.16,-0.68 -0.16,-1.6 0,-0.4 0.12,-2.16 0.12,-1.76 0.28,-4.2 0.2,-2.48 0.4,-5.32 0.24,-2.84 0.44,-5.4 0.2,-2.6 0.32,-4.6 0.16,-2 0.24,-2.76 0.04,-0.88 0.2,-1.04 0.12,-0.12 0.64,-0.12 h 1.56 q 2.16,0 3.12,0.92 1,0.88 1,2.12 0.92,-1.84 2.36,-2.64 1.48,-0.8 3.64,-0.8 z m -2.92,5.32 q -2.04,0 -3,1.76 -0.96,1.76 -0.96,4.8 0,1.04 0.12,2.04 0.16,1 0.52,1.8 0.36,0.8 0.96,1.28 0.64,0.48 1.6,0.48 1.72,0 2.88,-1.68 1.16,-1.68 1.16,-5.28 0,-1 -0.16,-1.92 -0.12,-0.96 -0.48,-1.68 -0.36,-0.72 -1,-1.16 -0.64,-0.44 -1.64,-0.44 z" />
      <path
         id="path868"
         style="fill:#333333;fill-opacity:1"
         d="m 64.954219,124.11029 q -1.76,0 -3.52,-0.44 -1.72,-0.44 -3.12,-1.52 -1.36,-1.08 -2.24,-2.88 -0.88,-1.8 -0.88,-4.52 0,-1 0.16,-2.4 0.16,-1.4 0.6,-2.88 0.48,-1.48 1.28,-2.92 0.84,-1.48 2.16,-2.64 1.32,-1.16 3.2,-1.88 1.88,-0.72 4.48,-0.72 2.08,0 3.52,0.48 1.44,0.48 2.32,1.32 0.88,0.8 1.28,1.88 0.4,1.08 0.4,2.32 0,1.84 -0.76,3.12 -0.72,1.28 -1.92,2.16 -1.16,0.84 -2.6,1.32 -1.44,0.48 -2.84,0.76 -1.4,0.24 -2.6,0.32 -1.16,0.04 -1.8,0.04 0,0.76 0.2,1.52 0.24,0.72 0.68,1.28 0.44,0.56 1.16,0.92 0.72,0.36 1.76,0.36 1.04,0 1.6,-0.32 0.6,-0.36 0.96,-0.76 0.36,-0.44 0.6,-0.76 0.28,-0.36 0.72,-0.36 0.2,0 0.68,0.12 0.52,0.08 1.04,0.4 0.52,0.32 0.92,0.88 0.4,0.56 0.4,1.44 0,1.16 -0.72,2 -0.72,0.84 -1.88,1.36 -1.12,0.52 -2.52,0.76 -1.4,0.24 -2.72,0.24 z m 0.76,-17.48 q -0.88,0 -1.52,0.52 -0.6,0.48 -1.04,1.24 -0.4,0.76 -0.64,1.68 -0.2,0.92 -0.32,1.76 2.48,-0.04 4,-0.84 1.56,-0.8 1.56,-2.28 0,-0.8 -0.52,-1.44 -0.48,-0.64 -1.52,-0.64 z" />
      <path
         id="path870"
         style="fill:#333333;fill-opacity:1"
         d="m 90.604219,120.19029 q 0,-0.88 0.12,-2.28 0.16,-1.44 0.28,-3 0.16,-1.6 0.28,-3.08 0.16,-1.48 0.16,-2.48 0,-1.04 -0.52,-1.84 -0.48,-0.84 -1.92,-0.84 -1.4,0 -2.32,0.68 -0.92,0.68 -1.56,2.48 -0.6,1.8 -1,4.96 -0.4,3.16 -0.76,8.12 -0.04,0.48 -0.2,0.64 -0.16,0.16 -0.68,0.16 h -1.44 q -1.24,0 -2.04,-0.24 -0.76,-0.28 -1.24,-0.76 -0.44,-0.48 -0.64,-1.16 -0.16,-0.72 -0.16,-1.64 0,-0.6 0.04,-1.68 0.08,-1.12 0.24,-3.04 0.16,-1.96 0.36,-4.92 0.24,-3 0.56,-7.4 0.04,-0.88 0.2,-1.04 0.12,-0.12 0.64,-0.12 h 1.56 q 1.2,0 1.96,0.28 0.8,0.28 1.28,0.76 0.48,0.44 0.68,1.08 0.2,0.6 0.24,1.24 1.24,-2.12 2.84,-2.92 1.6,-0.84 4,-0.84 1.68,0 2.92,0.36 1.24,0.36 2.04,1.24 0.84,0.84 1.24,2.24 0.4,1.36 0.4,3.4 0,0.64 -0.08,1.84 -0.08,1.2 -0.2,2.64 -0.12,1.4 -0.28,2.96 -0.12,1.52 -0.24,2.84 -0.12,1.32 -0.2,2.32 -0.08,1 -0.08,1.32 0,0.88 -0.2,1.08 -0.2,0.16 -0.88,0.16 h -1.28 q -1.28,0 -2.08,-0.24 -0.8,-0.24 -1.24,-0.68 -0.44,-0.44 -0.64,-1.08 -0.16,-0.68 -0.16,-1.52 z" />
      <path
         id="path872"
         style="fill:#785b9c;fill-opacity:1"
         d="m 106.28984,123.71029 q -2.24,0 -3.2,-0.88 -0.96,-0.88 -0.96,-2.52 0,-0.8 0.12,-2.72 0.12,-1.96 0.32,-4.44 0.2,-2.48 0.4,-5.24 0.2,-2.76 0.4,-5.2 0.2,-2.44 0.32,-4.280004 0.12,-1.84 0.12,-2.52 0,-0.6 0.64,-0.6 h 2.2 q 2.24,0 3.08,0.88 0.88,0.84 0.88,2.52 0,0.2 -0.04,0.36 0,0.16 0,0.36 l -1.32,18.680004 h 7.2 q 0.24,0 0.44,0.16 0.2,0.12 0.2,0.4 l -0.16,2.36 q -0.08,1.2 -0.68,1.96 -0.56,0.72 -2.36,0.72 z" />
      <path
         id="path874"
         style="fill:#785b9c;fill-opacity:1"
         d="m 124.18047,123.71029 q -2.24,0 -3.2,-0.88 -0.96,-0.88 -0.96,-2.52 0,-0.8 0.12,-2.72 0.12,-1.96 0.32,-4.44 0.2,-2.48 0.4,-5.24 0.2,-2.76 0.4,-5.2 0.2,-2.44 0.32,-4.280004 0.12,-1.84 0.12,-2.52 0,-0.6 0.64,-0.6 h 14.08 q 0.24,0 0.44,0.12 0.2,0.12 0.2,0.44 l -0.16,2.36 q -0.08,1.2 -0.68,1.960004 -0.56,0.72 -2.36,0.72 h -5.52 l -0.4,5.64 h 5.68 q 0.24,0 0.44,0.12 0.2,0.12 0.2,0.44 l -0.16,2.36 q -0.08,1.2 -0.68,1.96 -0.56,0.72 -2.36,0.72 h -3.48 l -0.44,5.96 h 8.8 q 0.24,0 0.44,0.16 0.2,0.12 0.2,0.4 l -0.16,2.36 q -0.08,1.2 -0.68,1.96 -0.56,0.72 -2.36,0.72 z" />
      <path
         id="path876"
         style="fill:#785b9c;fill-opacity:1"
         d="m 152.69859,95.310286 q 1,0 1.64,0.4 0.68,0.36 1.12,1 0.44,0.6 0.72,1.4 0.28,0.8 0.48,1.64 1.6,6.480004 2.64,10.680004 1.04,4.2 1.64,6.8 0.6,2.56 0.84,3.8 0.24,1.24 0.24,1.72 0,0.56 -0.28,0.76 -0.24,0.2 -0.8,0.2 h -2.04 q -1.72,0 -2.76,-0.4 -1,-0.44 -1.56,-1.24 -0.52,-0.8 -0.76,-1.92 -0.24,-1.16 -0.4,-2.6 h -6.96 l -1.32,5.52 q -0.2,0.64 -0.92,0.64 h -2.12 q -0.64,0 -1.32,-0.12 -0.68,-0.16 -1.24,-0.48 -0.52,-0.32 -0.88,-0.8 -0.36,-0.52 -0.36,-1.24 0,-0.88 0.56,-2.88 0.56,-2 1.4,-4.52 0.88,-2.56 1.92,-5.32 1.08,-2.8 2.08,-5.28 1,-2.48 1.8,-4.360004 0.84,-1.88 1.28,-2.64 0.32,-0.56 0.56,-0.64 0.28,-0.12 1,-0.12 z m -4.8,16.440004 h 4.6 l -1.68,-10.56 z" />
      <path
         id="path878"
         style="fill:#785b9c;fill-opacity:1"
         d="m 166.50422,95.910286 q 0.04,-0.32 0.24,-0.44 0.24,-0.16 0.44,-0.16 2.72,0 5.08,-0.16 2.4,-0.2 3.76,-0.2 3.4,0 5.68,0.68 2.32,0.68 3.72,2.12 1.44,1.44 2.04,3.720004 0.6,2.28 0.6,5.48 0,3.24 -0.68,6.36 -0.64,3.08 -2.28,5.48 -1.64,2.4 -4.44,3.88 -2.76,1.44 -7,1.44 -1.96,0 -3.6,-0.08 -1.6,-0.08 -2.76,-0.48 -1.16,-0.4 -1.8,-1.2 -0.64,-0.8 -0.64,-2.2 0,-0.52 0.04,-1.56 0.08,-1.04 0.16,-2.48 0.12,-1.44 0.24,-3.16 0.16,-1.76 0.32,-3.68 0.32,-3.96 0.48,-6.32 0.2,-2.36 0.24,-3.680004 0.08,-1.36 0.08,-2.04 0.04,-0.68 0.08,-1.32 z m 7.44,21.880004 q 2.24,0 3.56,-0.96 1.36,-0.96 2.08,-2.44 0.72,-1.48 0.96,-3.24 0.24,-1.76 0.24,-3.32 0,-1.68 -0.24,-2.92 -0.2,-1.28 -0.76,-2.12 -0.52,-0.84 -1.48,-1.24 -0.96,-0.44 -2.4,-0.44 -0.44,0 -1.12,0.04 -0.68,0.04 -1.64,0.12 -0.08,1.48 -0.2,3.52 -0.12,2 -0.28,4.24 -0.12,2.2 -0.28,4.48 -0.16,2.24 -0.32,4.16 0.6,0.08 1.08,0.12 0.48,0 0.8,0 z" />
      <path
         id="path880"
         style="fill:#785b9c;fill-opacity:1"
         d="m 195.66484,123.71029 q -2.28,0 -3.24,-0.88 -0.92,-0.92 -0.92,-2.68 0,-0.48 0.04,-1.6 0.08,-1.16 0.2,-2.72 0.12,-1.56 0.24,-3.4 0.16,-1.88 0.32,-3.8 0.32,-4.04 0.44,-6.56 0.16,-2.520004 0.24,-3.960004 0.12,-1.8 0.24,-2.28 0.12,-0.52 0.52,-0.52 1.24,0 2.52,-0.04 1.32,-0.08 2.52,-0.16 1.2,-0.08 2.24,-0.12 1.08,-0.08 1.92,-0.08 2.56,0 4.4,0.64 1.84,0.64 2.96,1.8 1.16,1.16 1.68,2.800004 0.56,1.64 0.56,3.68 0,3.12 -1.24,5.56 -1.24,2.44 -3.96,3.72 l 3.36,4.8 q 0.92,1.36 1.4,2.12 0.48,0.72 0.48,1.08 0,0.28 -0.36,0.8 -0.32,0.48 -1,1 -0.64,0.48 -1.6,0.84 -0.92,0.36 -2.08,0.36 -1.28,0 -2.24,-0.84 -0.92,-0.84 -1.68,-2.2 -0.72,-1.4 -1.28,-3.2 -0.52,-1.8 -1,-3.76 -1.44,-0.08 -2.36,-0.28 -0.12,1.76 -0.24,3.36 -0.12,1.6 -0.2,2.88 -0.08,1.24 -0.16,2.08 -0.08,0.8 -0.08,0.96 -0.04,0.32 -0.16,0.48 -0.12,0.12 -0.48,0.12 z m 6.48,-22.8 q -0.48,0 -1.08,0.08 -0.6,0.04 -1.28,0.12 -0.08,1.4 -0.2,3.36 -0.08,1.92 -0.24,4.12 1.4,0.32 2.44,0.32 1.24,0 2,-0.48 0.8,-0.48 1.24,-1.16 0.44,-0.72 0.56,-1.52 0.16,-0.8 0.16,-1.44 0,-1.64 -0.8,-2.52 -0.8,-0.88 -2.8,-0.88 z" />
    </g>
  </g>
</svg>
